%TF.GenerationSoftware,KiCad,Pcbnew,6.0.7+dfsg-1~bpo11+1*%
%TF.CreationDate,2022-10-14T07:47:58+00:00*%
%TF.ProjectId,0104-USB-HUB,30313034-2d55-4534-922d-4855422e6b69,V1.0*%
%TF.SameCoordinates,Original*%
%TF.FileFunction,Paste,Top*%
%TF.FilePolarity,Positive*%
%FSLAX46Y46*%
G04 Gerber Fmt 4.6, Leading zero omitted, Abs format (unit mm)*
G04 Created by KiCad (PCBNEW 6.0.7+dfsg-1~bpo11+1) date 2022-10-14 07:47:58*
%MOMM*%
%LPD*%
G01*
G04 APERTURE LIST*
G04 Aperture macros list*
%AMRoundRect*
0 Rectangle with rounded corners*
0 $1 Rounding radius*
0 $2 $3 $4 $5 $6 $7 $8 $9 X,Y pos of 4 corners*
0 Add a 4 corners polygon primitive as box body*
4,1,4,$2,$3,$4,$5,$6,$7,$8,$9,$2,$3,0*
0 Add four circle primitives for the rounded corners*
1,1,$1+$1,$2,$3*
1,1,$1+$1,$4,$5*
1,1,$1+$1,$6,$7*
1,1,$1+$1,$8,$9*
0 Add four rect primitives between the rounded corners*
20,1,$1+$1,$2,$3,$4,$5,0*
20,1,$1+$1,$4,$5,$6,$7,0*
20,1,$1+$1,$6,$7,$8,$9,0*
20,1,$1+$1,$8,$9,$2,$3,0*%
G04 Aperture macros list end*
%ADD10RoundRect,0.218750X0.218750X0.256250X-0.218750X0.256250X-0.218750X-0.256250X0.218750X-0.256250X0*%
%ADD11R,0.700000X0.600000*%
%ADD12RoundRect,0.250000X0.375000X0.625000X-0.375000X0.625000X-0.375000X-0.625000X0.375000X-0.625000X0*%
%ADD13RoundRect,0.135000X-0.135000X-0.185000X0.135000X-0.185000X0.135000X0.185000X-0.135000X0.185000X0*%
%ADD14R,0.600000X0.700000*%
%ADD15RoundRect,0.250000X-0.325000X-0.650000X0.325000X-0.650000X0.325000X0.650000X-0.325000X0.650000X0*%
%ADD16RoundRect,0.150000X0.850000X0.150000X-0.850000X0.150000X-0.850000X-0.150000X0.850000X-0.150000X0*%
%ADD17RoundRect,0.250000X0.650000X-0.325000X0.650000X0.325000X-0.650000X0.325000X-0.650000X-0.325000X0*%
%ADD18RoundRect,0.250000X-0.375000X-0.625000X0.375000X-0.625000X0.375000X0.625000X-0.375000X0.625000X0*%
%ADD19RoundRect,0.140000X0.140000X0.170000X-0.140000X0.170000X-0.140000X-0.170000X0.140000X-0.170000X0*%
%ADD20R,1.450000X0.600000*%
%ADD21R,1.450000X0.300000*%
%ADD22R,1.200000X0.900000*%
G04 APERTURE END LIST*
D10*
%TO.C,D6*%
X73587500Y12250000D03*
X72012500Y12250000D03*
%TD*%
D11*
%TO.C,D11*%
X42000000Y23900000D03*
X42000000Y22500000D03*
%TD*%
D12*
%TO.C,F3*%
X71700000Y23200000D03*
X68900000Y23200000D03*
%TD*%
D13*
%TO.C,R5*%
X69790000Y12250000D03*
X70810000Y12250000D03*
%TD*%
D14*
%TO.C,D3*%
X11500000Y17750000D03*
X10100000Y17750000D03*
%TD*%
D15*
%TO.C,C1*%
X14325000Y24000000D03*
X17275000Y24000000D03*
%TD*%
D16*
%TO.C,U1*%
X18300000Y13055000D03*
X18300000Y14325000D03*
X18300000Y15595000D03*
X18300000Y16865000D03*
X18300000Y18135000D03*
X18300000Y19405000D03*
X18300000Y20675000D03*
X18300000Y21945000D03*
X13300000Y21945000D03*
X13300000Y20675000D03*
X13300000Y19405000D03*
X13300000Y18135000D03*
X13300000Y16865000D03*
X13300000Y15595000D03*
X13300000Y14325000D03*
X13300000Y13055000D03*
%TD*%
D13*
%TO.C,R3*%
X29790000Y12250000D03*
X30810000Y12250000D03*
%TD*%
%TO.C,R4*%
X49790000Y12250000D03*
X50810000Y12250000D03*
%TD*%
D10*
%TO.C,D5*%
X53587500Y12250000D03*
X52012500Y12250000D03*
%TD*%
D17*
%TO.C,C6*%
X66800000Y22500000D03*
X66800000Y25450000D03*
%TD*%
D18*
%TO.C,F1*%
X28900000Y23200000D03*
X31700000Y23200000D03*
%TD*%
D14*
%TO.C,D2*%
X11500000Y19150000D03*
X10100000Y19150000D03*
%TD*%
D19*
%TO.C,C2*%
X11530000Y16550000D03*
X10570000Y16550000D03*
%TD*%
D12*
%TO.C,F2*%
X51700000Y23200000D03*
X48900000Y23200000D03*
%TD*%
D13*
%TO.C,R1*%
X10540000Y13750000D03*
X11560000Y13750000D03*
%TD*%
D11*
%TO.C,D13*%
X64800000Y23900000D03*
X64800000Y22500000D03*
%TD*%
D13*
%TO.C,R2*%
X10540000Y12800000D03*
X11560000Y12800000D03*
%TD*%
D19*
%TO.C,C3*%
X11530000Y15400000D03*
X10570000Y15400000D03*
%TD*%
D11*
%TO.C,D12*%
X43400000Y23900000D03*
X43400000Y22500000D03*
%TD*%
D14*
%TO.C,D1*%
X11500000Y22500000D03*
X10100000Y22500000D03*
%TD*%
D11*
%TO.C,D14*%
X62000000Y23900000D03*
X62000000Y22500000D03*
%TD*%
D10*
%TO.C,D4*%
X33587500Y12250000D03*
X32012500Y12250000D03*
%TD*%
D20*
%TO.C,J1*%
X7845000Y20700000D03*
X7845000Y19900000D03*
D21*
X7845000Y18750000D03*
X7845000Y17750000D03*
X7845000Y17250000D03*
X7845000Y16250000D03*
D20*
X7845000Y15100000D03*
X7845000Y14300000D03*
X7845000Y14300000D03*
X7845000Y15100000D03*
D21*
X7845000Y15750000D03*
X7845000Y16750000D03*
X7845000Y18250000D03*
X7845000Y19250000D03*
D20*
X7845000Y19900000D03*
X7845000Y20700000D03*
%TD*%
D11*
%TO.C,D15*%
X63400000Y23900000D03*
X63400000Y22500000D03*
%TD*%
%TO.C,D7*%
X24800000Y23900000D03*
X24800000Y22500000D03*
%TD*%
D17*
%TO.C,C5*%
X46800000Y22500000D03*
X46800000Y25450000D03*
%TD*%
%TO.C,C4*%
X26800000Y22500000D03*
X26800000Y25450000D03*
%TD*%
D22*
%TO.C,Y1*%
X14700000Y9620000D03*
X16900000Y9620000D03*
X16900000Y11380000D03*
X14700000Y11380000D03*
%TD*%
D11*
%TO.C,D9*%
X23400000Y23900000D03*
X23400000Y22500000D03*
%TD*%
%TO.C,D10*%
X44800000Y23900000D03*
X44800000Y22500000D03*
%TD*%
%TO.C,D8*%
X22000000Y23900000D03*
X22000000Y22500000D03*
%TD*%
M02*
