M48
; DRILL file {KiCad 6.0.7+dfsg-1~bpo11+1} date Fri Oct 14 07:47:58 2022
; FORMAT={-:-/ absolute / metric / decimal}
; #@! TF.CreationDate,2022-10-14T07:47:58+00:00
; #@! TF.GenerationSoftware,Kicad,Pcbnew,6.0.7+dfsg-1~bpo11+1
; #@! TF.FileFunction,Plated,1,2,PTH
FMAT,2
METRIC
; #@! TA.AperFunction,Plated,PTH,ViaDrill
T1C0.300
; #@! TA.AperFunction,Plated,PTH,ViaDrill
T2C0.400
; #@! TA.AperFunction,Plated,PTH,ComponentDrill
T3C0.600
; #@! TA.AperFunction,Plated,PTH,ViaDrill
T4C0.700
; #@! TA.AperFunction,Plated,PTH,ComponentDrill
T5C0.800
; #@! TA.AperFunction,Plated,PTH,ComponentDrill
T6C0.900
; #@! TA.AperFunction,Plated,PTH,ComponentDrill
T7C1.400
%
G90
G05
T1
X0.55Y25.0
X0.55Y22.5
X0.55Y20.0
X0.55Y17.5
X0.55Y15.0
X0.55Y12.5
X0.55Y10.0
X7.3Y26.75
X7.3Y8.25
X9.5Y14.6
X10.5Y14.6
X10.9Y21.6
X11.5Y14.6
X11.9Y20.0
X12.3Y26.75
X12.3Y25.0
X12.3Y8.25
X12.5Y22.9
X13.3Y22.9
X13.3Y11.75
X13.3Y10.75
X13.3Y9.75
X13.3Y8.75
X14.8Y26.75
X14.8Y8.25
X15.05Y17.75
X15.05Y15.5
X16.55Y21.25
X16.8Y25.75
X17.3Y26.75
X17.3Y8.25
X17.8Y25.75
X18.3Y11.0
X18.3Y10.0
X18.3Y9.0
X19.8Y26.75
X19.8Y25.0
X19.8Y23.0
X19.8Y9.5
X19.8Y8.25
X20.55Y13.5
X20.55Y11.5
X22.0Y25.0
X22.3Y26.75
X22.3Y9.5
X22.3Y8.25
X22.8Y18.5
X23.4Y25.0
X23.55Y15.5
X24.8Y26.75
X24.8Y25.0
X24.8Y9.5
X24.8Y8.25
X26.3Y26.75
X26.3Y13.25
X27.3Y26.75
X27.3Y15.5
X27.3Y11.5
X27.3Y9.5
X27.3Y8.25
X28.8Y11.5
X29.05Y13.75
X29.8Y25.0
X29.8Y9.5
X32.3Y26.75
X32.3Y25.0
X32.3Y13.5
X32.3Y9.5
X32.3Y8.25
X34.8Y26.75
X34.8Y25.0
X34.8Y23.0
X34.8Y13.5
X34.8Y11.5
X34.8Y9.5
X34.8Y8.25
X37.3Y26.75
X37.3Y25.0
X37.3Y23.0
X37.3Y13.5
X37.3Y11.5
X37.3Y9.5
X37.3Y8.25
X39.8Y26.75
X39.8Y25.0
X39.8Y23.0
X39.8Y14.5
X39.8Y11.5
X39.8Y9.5
X39.8Y8.25
X41.05Y15.75
X41.3Y13.0
X42.0Y25.0
X42.3Y26.75
X42.3Y17.0
X42.3Y9.5
X42.3Y8.25
X42.55Y14.25
X43.4Y25.0
X43.8Y15.5
X44.8Y26.75
X44.8Y25.0
X44.8Y9.5
X44.8Y8.25
X46.3Y26.75
X47.3Y26.75
X47.3Y11.5
X47.3Y9.5
X47.3Y8.25
X48.8Y11.5
X49.8Y25.0
X49.8Y9.5
X52.3Y26.75
X52.3Y25.0
X52.3Y9.5
X52.3Y8.25
X54.8Y26.75
X54.8Y25.0
X54.8Y23.0
X54.8Y12.5
X54.8Y11.5
X54.8Y9.5
X54.8Y8.25
X56.8Y11.5
X57.3Y26.75
X57.3Y25.0
X57.3Y23.0
X57.3Y9.5
X57.3Y8.25
X58.55Y13.25
X58.8Y10.5
X59.8Y26.75
X59.8Y25.0
X59.8Y23.0
X59.8Y14.5
X59.8Y8.25
X60.05Y11.75
X61.05Y15.75
X61.3Y13.0
X62.0Y25.0
X62.3Y26.75
X62.3Y17.0
X62.3Y8.25
X62.55Y14.25
X63.4Y25.0
X63.8Y15.5
X64.8Y26.75
X64.8Y25.0
X64.8Y8.25
X66.3Y26.75
X67.3Y26.75
X67.3Y8.25
X69.8Y25.0
X72.3Y26.75
X72.3Y25.0
X72.3Y8.25
X74.8Y12.75
X74.8Y11.75
X79.05Y25.0
X79.05Y22.5
X79.05Y20.0
X79.05Y15.0
X79.05Y12.5
X79.05Y10.0
T2
X5.8Y18.75
X5.8Y15.75
X9.75Y13.75
X9.75Y12.8
X15.749Y16.449
X15.849Y18.849
X15.849Y14.199
X16.351Y17.051
X16.451Y19.451
X16.451Y14.801
T4
X9.4Y20.55
X9.4Y15.75
X13.05Y24.0
T5
X21.7Y20.3
X23.1Y20.3
X24.5Y20.3
X25.9Y20.3
X30.1Y20.0
X30.1Y17.5
X30.1Y15.0
X35.5Y20.0
X35.5Y17.5
X35.5Y15.0
X41.7Y20.3
X43.1Y20.3
X44.5Y20.3
X45.9Y20.3
X50.1Y20.0
X50.1Y17.5
X50.1Y15.0
X55.5Y20.0
X55.5Y17.5
X55.5Y15.0
X61.7Y20.3
X63.1Y20.3
X64.5Y20.3
X65.9Y20.3
X70.1Y20.0
X70.1Y17.5
X70.1Y15.0
X75.5Y20.0
X75.5Y17.5
X75.5Y15.0
T3
G00X3.05Y21.825
M15
G01X2.45Y21.825
M16
G05
G00X3.05Y13.175
M15
G01X2.45Y13.175
M16
G05
G00X7.48Y21.825
M15
G01X6.38Y21.825
M16
G05
G00X7.48Y13.175
M15
G01X6.38Y13.175
M16
G05
T6
G00X22.95Y12.7
M15
G01X24.65Y12.7
M16
G05
G00X42.95Y12.7
M15
G01X44.65Y12.7
M16
G05
G00X62.95Y12.7
M15
G01X64.65Y12.7
M16
G05
T7
G00X20.72Y18.55
M15
G01X20.72Y18.05
M16
G05
G00X26.88Y18.55
M15
G01X26.88Y18.05
M16
G05
G00X40.72Y18.55
M15
G01X40.72Y18.05
M16
G05
G00X46.88Y18.55
M15
G01X46.88Y18.05
M16
G05
G00X60.72Y18.55
M15
G01X60.72Y18.05
M16
G05
G00X66.88Y18.55
M15
G01X66.88Y18.05
M16
G05
T0
M30
