%TF.GenerationSoftware,KiCad,Pcbnew,6.0.7+dfsg-1~bpo11+1*%
%TF.CreationDate,2022-10-14T07:47:58+00:00*%
%TF.ProjectId,0104-USB-HUB,30313034-2d55-4534-922d-4855422e6b69,V1.0*%
%TF.SameCoordinates,Original*%
%TF.FileFunction,Legend,Top*%
%TF.FilePolarity,Positive*%
%FSLAX46Y46*%
G04 Gerber Fmt 4.6, Leading zero omitted, Abs format (unit mm)*
G04 Created by KiCad (PCBNEW 6.0.7+dfsg-1~bpo11+1) date 2022-10-14 07:47:58*
%MOMM*%
%LPD*%
G01*
G04 APERTURE LIST*
%ADD10C,0.120000*%
%ADD11C,0.150000*%
G04 APERTURE END LIST*
D10*
X49300000Y10500000D02*
X47300000Y10500000D01*
X69300000Y10500000D02*
X67300000Y10500000D01*
X29300000Y10500000D02*
X27300000Y10500000D01*
X36104761Y2938096D02*
X36104761Y2366667D01*
X36066666Y2252381D01*
X35990476Y2176191D01*
X35876190Y2138096D01*
X35800000Y2138096D01*
X36866666Y2138096D02*
X36485714Y2138096D01*
X36485714Y2938096D01*
X37590476Y2214286D02*
X37552380Y2176191D01*
X37438095Y2138096D01*
X37361904Y2138096D01*
X37247619Y2176191D01*
X37171428Y2252381D01*
X37133333Y2328572D01*
X37095238Y2480953D01*
X37095238Y2595239D01*
X37133333Y2747620D01*
X37171428Y2823810D01*
X37247619Y2900000D01*
X37361904Y2938096D01*
X37438095Y2938096D01*
X37552380Y2900000D01*
X37590476Y2861905D01*
X38161904Y2938096D02*
X38161904Y2366667D01*
X38123809Y2252381D01*
X38047619Y2176191D01*
X37933333Y2138096D01*
X37857142Y2138096D01*
X38923809Y2138096D02*
X38542857Y2138096D01*
X38542857Y2938096D01*
X39647619Y2214286D02*
X39609523Y2176191D01*
X39495238Y2138096D01*
X39419047Y2138096D01*
X39304761Y2176191D01*
X39228571Y2252381D01*
X39190476Y2328572D01*
X39152380Y2480953D01*
X39152380Y2595239D01*
X39190476Y2747620D01*
X39228571Y2823810D01*
X39304761Y2900000D01*
X39419047Y2938096D01*
X39495238Y2938096D01*
X39609523Y2900000D01*
X39647619Y2861905D01*
X40219047Y2938096D02*
X40219047Y2366667D01*
X40180952Y2252381D01*
X40104761Y2176191D01*
X39990476Y2138096D01*
X39914285Y2138096D01*
X40980952Y2138096D02*
X40600000Y2138096D01*
X40600000Y2938096D01*
X41704761Y2214286D02*
X41666666Y2176191D01*
X41552380Y2138096D01*
X41476190Y2138096D01*
X41361904Y2176191D01*
X41285714Y2252381D01*
X41247619Y2328572D01*
X41209523Y2480953D01*
X41209523Y2595239D01*
X41247619Y2747620D01*
X41285714Y2823810D01*
X41361904Y2900000D01*
X41476190Y2938096D01*
X41552380Y2938096D01*
X41666666Y2900000D01*
X41704761Y2861905D01*
X42276190Y2938096D02*
X42276190Y2366667D01*
X42238095Y2252381D01*
X42161904Y2176191D01*
X42047619Y2138096D01*
X41971428Y2138096D01*
X43038095Y2138096D02*
X42657142Y2138096D01*
X42657142Y2938096D01*
X43761904Y2214286D02*
X43723809Y2176191D01*
X43609523Y2138096D01*
X43533333Y2138096D01*
X43419047Y2176191D01*
X43342857Y2252381D01*
X43304761Y2328572D01*
X43266666Y2480953D01*
X43266666Y2595239D01*
X43304761Y2747620D01*
X43342857Y2823810D01*
X43419047Y2900000D01*
X43533333Y2938096D01*
X43609523Y2938096D01*
X43723809Y2900000D01*
X43761904Y2861905D01*
D11*
X1135595Y25047620D02*
X1135595Y24238096D01*
X1183214Y24142858D01*
X1230833Y24095239D01*
X1326071Y24047620D01*
X1516547Y24047620D01*
X1611785Y24095239D01*
X1659404Y24142858D01*
X1707023Y24238096D01*
X1707023Y25047620D01*
X2135595Y24095239D02*
X2278452Y24047620D01*
X2516547Y24047620D01*
X2611785Y24095239D01*
X2659404Y24142858D01*
X2707023Y24238096D01*
X2707023Y24333334D01*
X2659404Y24428572D01*
X2611785Y24476191D01*
X2516547Y24523810D01*
X2326071Y24571429D01*
X2230833Y24619048D01*
X2183214Y24666667D01*
X2135595Y24761905D01*
X2135595Y24857143D01*
X2183214Y24952381D01*
X2230833Y25000000D01*
X2326071Y25047620D01*
X2564166Y25047620D01*
X2707023Y25000000D01*
X3468928Y24571429D02*
X3611785Y24523810D01*
X3659404Y24476191D01*
X3707023Y24380953D01*
X3707023Y24238096D01*
X3659404Y24142858D01*
X3611785Y24095239D01*
X3516547Y24047620D01*
X3135595Y24047620D01*
X3135595Y25047620D01*
X3468928Y25047620D01*
X3564166Y25000000D01*
X3611785Y24952381D01*
X3659404Y24857143D01*
X3659404Y24761905D01*
X3611785Y24666667D01*
X3564166Y24619048D01*
X3468928Y24571429D01*
X3135595Y24571429D01*
X4897500Y24047620D02*
X4897500Y25047620D01*
X4897500Y24571429D02*
X5468928Y24571429D01*
X5468928Y24047620D02*
X5468928Y25047620D01*
X5945119Y25047620D02*
X5945119Y24238096D01*
X5992738Y24142858D01*
X6040357Y24095239D01*
X6135595Y24047620D01*
X6326071Y24047620D01*
X6421309Y24095239D01*
X6468928Y24142858D01*
X6516547Y24238096D01*
X6516547Y25047620D01*
X7326071Y24571429D02*
X7468928Y24523810D01*
X7516547Y24476191D01*
X7564166Y24380953D01*
X7564166Y24238096D01*
X7516547Y24142858D01*
X7468928Y24095239D01*
X7373690Y24047620D01*
X6992738Y24047620D01*
X6992738Y25047620D01*
X7326071Y25047620D01*
X7421309Y25000000D01*
X7468928Y24952381D01*
X7516547Y24857143D01*
X7516547Y24761905D01*
X7468928Y24666667D01*
X7421309Y24619048D01*
X7326071Y24571429D01*
X6992738Y24571429D01*
D10*
%TO.C,D6*%
X74285000Y11515000D02*
X74285000Y12985000D01*
X72000000Y11515000D02*
X74285000Y11515000D01*
X74285000Y12985000D02*
X72000000Y12985000D01*
%TO.C,D11*%
X41400000Y22500000D02*
X41400000Y24350000D01*
X42600000Y24350000D02*
X41400000Y24350000D01*
X42600000Y22500000D02*
X42600000Y24350000D01*
%TO.C,kibuzzard-6343237B*%
G36*
X32911919Y10407131D02*
G01*
X32957163Y10304737D01*
X32941288Y10234094D01*
X32900806Y10191231D01*
X32844450Y10170594D01*
X32779363Y10165037D01*
X32730944Y10166625D01*
X32685700Y10171387D01*
X32685700Y10438088D01*
X32790475Y10438088D01*
X32911919Y10407131D01*
G37*
G36*
X32826988Y10827819D02*
G01*
X32871438Y10811944D01*
X32901600Y10778606D01*
X32912713Y10722250D01*
X32874613Y10632556D01*
X32761900Y10600012D01*
X32685700Y10600012D01*
X32685700Y10825437D01*
X32728563Y10830200D01*
X32774600Y10831787D01*
X32826988Y10827819D01*
G37*
G36*
X30731032Y9792225D02*
G01*
X30661994Y9802466D01*
X30594292Y9819424D01*
X30528578Y9842937D01*
X30465485Y9872778D01*
X30405621Y9908659D01*
X30349562Y9950235D01*
X30297848Y9997106D01*
X30250977Y10048819D01*
X30209401Y10104878D01*
X30173520Y10164743D01*
X30143679Y10227836D01*
X30120166Y10293550D01*
X30103208Y10361252D01*
X30102878Y10363475D01*
X30879125Y10363475D01*
X30883094Y10281719D01*
X30895000Y10207900D01*
X30916431Y10143209D01*
X30948975Y10088837D01*
X31051369Y10013431D01*
X31123402Y9993786D01*
X31210912Y9987237D01*
X31299812Y9993786D01*
X31372837Y10013431D01*
X31431575Y10045380D01*
X31449023Y10061850D01*
X31674463Y10061850D01*
X31784000Y10013431D01*
X31869328Y9993786D01*
X31979263Y9987237D01*
X32090652Y9995616D01*
X32181404Y10020751D01*
X32186423Y10023750D01*
X32490438Y10023750D01*
X32559097Y10011248D01*
X32628550Y10002319D01*
X32697209Y9996961D01*
X32763488Y9995175D01*
X32841870Y9998945D01*
X32915094Y10010256D01*
X32980975Y10030497D01*
X33037331Y10061056D01*
X33119087Y10156306D01*
X33141709Y10223180D01*
X33149250Y10304737D01*
X33140320Y10371412D01*
X33113531Y10434912D01*
X33061739Y10490475D01*
X32977800Y10533337D01*
X33069081Y10619062D01*
X33094680Y10677006D01*
X33103213Y10742887D01*
X33096562Y10785750D01*
X34068413Y10785750D01*
X34131913Y10623825D01*
X34228750Y10662719D01*
X34330350Y10719075D01*
X34330350Y10169800D01*
X34123975Y10169800D01*
X34123975Y10007875D01*
X34720875Y10007875D01*
X34720875Y10169800D01*
X34525613Y10169800D01*
X34525613Y10990537D01*
X34392263Y10990537D01*
X34324000Y10928625D01*
X34239863Y10871475D01*
X34150963Y10822262D01*
X34068413Y10785750D01*
X33096562Y10785750D01*
X33088925Y10834962D01*
X33034950Y10918306D01*
X32925413Y10978631D01*
X32845244Y10995895D01*
X32744438Y11001650D01*
X32612675Y10994506D01*
X32490438Y10977837D01*
X32490438Y10023750D01*
X32186423Y10023750D01*
X32251519Y10062644D01*
X32318789Y10153727D01*
X32341212Y10276162D01*
X32334466Y10350180D01*
X32314225Y10410306D01*
X32245169Y10499206D01*
X32153094Y10556356D01*
X32057050Y10595250D01*
X31995931Y10619062D01*
X31940369Y10648431D01*
X31899888Y10686531D01*
X31884012Y10736537D01*
X31901299Y10799156D01*
X31953157Y10836726D01*
X32039588Y10849250D01*
X32151506Y10833375D01*
X32239612Y10795275D01*
X32296763Y10946087D01*
X32183256Y10992125D01*
X32110033Y11007603D01*
X32025300Y11012762D01*
X31928022Y11004119D01*
X31845736Y10978190D01*
X31778444Y10934975D01*
X31711173Y10842106D01*
X31688750Y10719075D01*
X31714150Y10602394D01*
X31778444Y10523812D01*
X31864962Y10471425D01*
X31957037Y10434912D01*
X32023713Y10407131D01*
X32084038Y10373794D01*
X32128487Y10331725D01*
X32145950Y10277750D01*
X32138806Y10230919D01*
X32112613Y10189644D01*
X32061019Y10161069D01*
X31979263Y10150750D01*
X31900086Y10156306D01*
X31834006Y10172975D01*
X31731612Y10220600D01*
X31674463Y10061850D01*
X31449023Y10061850D01*
X31477613Y10088837D01*
X31511347Y10143209D01*
X31533175Y10207900D01*
X31545081Y10281719D01*
X31549050Y10363475D01*
X31549050Y10990537D01*
X31353787Y10990537D01*
X31353787Y10377762D01*
X31347437Y10273781D01*
X31325212Y10205519D01*
X31282350Y10168212D01*
X31214087Y10157100D01*
X31145825Y10168212D01*
X31103756Y10204725D01*
X31082325Y10272194D01*
X31075975Y10376175D01*
X31075975Y10990537D01*
X30879125Y10990537D01*
X30879125Y10363475D01*
X30102878Y10363475D01*
X30092967Y10430290D01*
X30089542Y10500000D01*
X30092967Y10569710D01*
X30103208Y10638748D01*
X30120166Y10706450D01*
X30143679Y10772164D01*
X30173520Y10835257D01*
X30209401Y10895122D01*
X30250977Y10951181D01*
X30297848Y11002894D01*
X30349562Y11049765D01*
X30405621Y11091341D01*
X30465485Y11127222D01*
X30528578Y11157063D01*
X30594292Y11180576D01*
X30661994Y11197534D01*
X30731032Y11207775D01*
X30800742Y11211200D01*
X34799258Y11211200D01*
X34868968Y11207775D01*
X34938006Y11197534D01*
X35005708Y11180576D01*
X35071422Y11157063D01*
X35134515Y11127222D01*
X35194379Y11091341D01*
X35250438Y11049765D01*
X35302152Y11002894D01*
X35349023Y10951181D01*
X35390599Y10895122D01*
X35426480Y10835257D01*
X35456321Y10772164D01*
X35479834Y10706450D01*
X35496792Y10638748D01*
X35507033Y10569710D01*
X35510458Y10500000D01*
X35507033Y10430290D01*
X35496792Y10361252D01*
X35479834Y10293550D01*
X35456321Y10227836D01*
X35426480Y10164743D01*
X35390599Y10104878D01*
X35349023Y10048819D01*
X35302152Y9997106D01*
X35250438Y9950235D01*
X35194379Y9908659D01*
X35134515Y9872778D01*
X35071422Y9842937D01*
X35005708Y9819424D01*
X34938006Y9802466D01*
X34868968Y9792225D01*
X34799258Y9788800D01*
X30800742Y9788800D01*
X30731032Y9792225D01*
G37*
%TO.C,F3*%
X70902064Y24110000D02*
X69697936Y24110000D01*
X70902064Y22290000D02*
X69697936Y22290000D01*
%TO.C,R5*%
X70146359Y11870000D02*
X70453641Y11870000D01*
X70146359Y12630000D02*
X70453641Y12630000D01*
%TO.C,D3*%
X10100000Y18350000D02*
X11950000Y18350000D01*
X10100000Y17150000D02*
X11950000Y17150000D01*
X11950000Y17150000D02*
X11950000Y18350000D01*
%TO.C,SW2*%
X51300000Y18500000D02*
X51300000Y16500000D01*
X57050000Y15000000D02*
X57050000Y21750000D01*
X54300000Y16500000D02*
X54300000Y18500000D01*
X51300000Y16500000D02*
X54300000Y16500000D01*
X48550000Y21750000D02*
X48550000Y13250000D01*
X54300000Y18500000D02*
X51300000Y18500000D01*
X48550000Y13250000D02*
X55300000Y13250000D01*
X57050000Y21750000D02*
X48550000Y21750000D01*
%TO.C,kibuzzard-63429E4C*%
G36*
X4019376Y25689961D02*
G01*
X3956153Y25709785D01*
X3909362Y25769257D01*
X3887931Y25830296D01*
X3875072Y25907687D01*
X3870786Y26001429D01*
X3871445Y26015716D01*
X3940794Y26015716D01*
X3962226Y25949279D01*
X4020804Y25921419D01*
X4077240Y25949279D01*
X4099386Y26015716D01*
X4077240Y26082867D01*
X4020804Y26111442D01*
X3962226Y26082867D01*
X3940794Y26015716D01*
X3871445Y26015716D01*
X3875072Y26094377D01*
X3887931Y26171291D01*
X3909362Y26232172D01*
X3956153Y26291644D01*
X4019376Y26311467D01*
X4083491Y26291644D01*
X4130104Y26232172D01*
X4151138Y26171291D01*
X4163759Y26094377D01*
X4167966Y26001429D01*
X4163759Y25907687D01*
X4151138Y25830296D01*
X4130104Y25769257D01*
X4083491Y25709785D01*
X4020804Y25690403D01*
X4019376Y25689961D01*
G37*
G36*
X1917684Y25921419D02*
G01*
X1803384Y25921419D01*
X1833388Y26078581D01*
X1946259Y26078581D01*
X1917684Y25921419D01*
G37*
G36*
X4783757Y25909989D02*
G01*
X4583732Y25909989D01*
X4626594Y25991427D01*
X4677315Y26073581D01*
X4730893Y26151447D01*
X4783757Y26221456D01*
X4783757Y25909989D01*
G37*
G36*
X2590626Y25689961D02*
G01*
X2527403Y25709785D01*
X2480612Y25769257D01*
X2459181Y25830296D01*
X2446322Y25907687D01*
X2442036Y26001429D01*
X2442695Y26015716D01*
X2512044Y26015716D01*
X2533476Y25949279D01*
X2592054Y25921419D01*
X2648490Y25949279D01*
X2670636Y26015716D01*
X2648490Y26082867D01*
X2592054Y26111442D01*
X2533476Y26082867D01*
X2512044Y26015716D01*
X2442695Y26015716D01*
X2446322Y26094377D01*
X2459181Y26171291D01*
X2480612Y26232172D01*
X2527403Y26291644D01*
X2590626Y26311467D01*
X2654741Y26291644D01*
X2701354Y26232172D01*
X2722388Y26171291D01*
X2735009Y26094377D01*
X2739216Y26001429D01*
X2735009Y25907687D01*
X2722388Y25830296D01*
X2701354Y25769257D01*
X2654741Y25709785D01*
X2592054Y25690403D01*
X2590626Y25689961D01*
G37*
G36*
X1238003Y25363002D02*
G01*
X1175869Y25372219D01*
X1114937Y25387482D01*
X1055794Y25408643D01*
X999011Y25435500D01*
X945133Y25467793D01*
X894680Y25505211D01*
X848137Y25547395D01*
X805954Y25593938D01*
X768535Y25644391D01*
X736242Y25698268D01*
X709385Y25755052D01*
X702002Y25775686D01*
X1544781Y25775686D01*
X1630506Y25775686D01*
X1589072Y25557087D01*
X1734804Y25557087D01*
X1774809Y25775686D01*
X1889109Y25775686D01*
X1847676Y25557087D01*
X1993408Y25557087D01*
X2034842Y25775686D01*
X2209149Y25775686D01*
X2209149Y25921419D01*
X2061988Y25921419D01*
X2077263Y26001429D01*
X2283444Y26001429D01*
X2288356Y25891772D01*
X2303090Y25797117D01*
X2327646Y25717465D01*
X2362026Y25652814D01*
X2422351Y25589314D01*
X2498551Y25551214D01*
X2590626Y25538514D01*
X2682701Y25551214D01*
X2758901Y25589314D01*
X2819226Y25652814D01*
X2853605Y25717465D01*
X2878162Y25797117D01*
X2892896Y25891772D01*
X2897807Y26001429D01*
X2892896Y26110416D01*
X2878162Y26204490D01*
X2861818Y26257175D01*
X3016393Y26257175D01*
X3073543Y26111442D01*
X3160697Y26146447D01*
X3252137Y26197167D01*
X3252137Y25702820D01*
X3066399Y25702820D01*
X3066399Y25557087D01*
X3603609Y25557087D01*
X3603609Y25702820D01*
X3427873Y25702820D01*
X3427873Y26001429D01*
X3712194Y26001429D01*
X3717106Y25891772D01*
X3731840Y25797117D01*
X3756396Y25717465D01*
X3790776Y25652814D01*
X3851101Y25589314D01*
X3927301Y25551214D01*
X4019376Y25538514D01*
X4111451Y25551214D01*
X4187651Y25589314D01*
X4247976Y25652814D01*
X4282355Y25717465D01*
X4297221Y25765685D01*
X4415139Y25765685D01*
X4783757Y25765685D01*
X4783757Y25557087D01*
X4959493Y25557087D01*
X4959493Y25765685D01*
X5055219Y25765685D01*
X5055219Y25909989D01*
X4959493Y25909989D01*
X4959493Y26441484D01*
X4802331Y26441484D01*
X4745181Y26380583D01*
X4688031Y26312182D01*
X4632309Y26239494D01*
X4579446Y26165735D01*
X4530154Y26092333D01*
X4485148Y26020717D01*
X4446215Y25953744D01*
X4415139Y25894273D01*
X4415139Y25765685D01*
X4297221Y25765685D01*
X4306912Y25797117D01*
X4321646Y25891772D01*
X4326557Y26001429D01*
X4321646Y26110416D01*
X4306912Y26204490D01*
X4282355Y26283652D01*
X4247976Y26347901D01*
X4187651Y26411004D01*
X4111451Y26448866D01*
X4019376Y26461486D01*
X3928729Y26448786D01*
X3853006Y26410686D01*
X3792204Y26347186D01*
X3757200Y26282714D01*
X3732197Y26203597D01*
X3717195Y26109835D01*
X3712194Y26001429D01*
X3427873Y26001429D01*
X3427873Y26441484D01*
X3307858Y26441484D01*
X3246422Y26385762D01*
X3170698Y26334328D01*
X3090688Y26290036D01*
X3016393Y26257175D01*
X2861818Y26257175D01*
X2853605Y26283652D01*
X2819226Y26347901D01*
X2758901Y26411004D01*
X2682701Y26448866D01*
X2590626Y26461486D01*
X2499979Y26448786D01*
X2424256Y26410686D01*
X2363454Y26347186D01*
X2328450Y26282714D01*
X2303447Y26203597D01*
X2288445Y26109835D01*
X2283444Y26001429D01*
X2077263Y26001429D01*
X2091992Y26078581D01*
X2209149Y26078581D01*
X2209149Y26224314D01*
X2120567Y26224314D01*
X2162001Y26441484D01*
X2016268Y26441484D01*
X1974834Y26224314D01*
X1860534Y26224314D01*
X1903397Y26441484D01*
X1757664Y26441484D01*
X1716231Y26224314D01*
X1544781Y26224314D01*
X1544781Y26078581D01*
X1687656Y26078581D01*
X1657652Y25921419D01*
X1544781Y25921419D01*
X1544781Y25775686D01*
X702002Y25775686D01*
X688224Y25814195D01*
X672961Y25875127D01*
X663744Y25937261D01*
X660662Y26000000D01*
X663744Y26062739D01*
X672961Y26124873D01*
X688224Y26185805D01*
X709385Y26244948D01*
X736242Y26301732D01*
X768535Y26355609D01*
X805954Y26406062D01*
X848137Y26452605D01*
X894680Y26494789D01*
X945133Y26532207D01*
X999011Y26564500D01*
X1055794Y26591357D01*
X1114937Y26612518D01*
X1175869Y26627781D01*
X1238003Y26636998D01*
X1300742Y26640080D01*
X5299258Y26640080D01*
X5361997Y26636998D01*
X5424131Y26627781D01*
X5485063Y26612518D01*
X5544206Y26591357D01*
X5600989Y26564500D01*
X5654867Y26532207D01*
X5705320Y26494789D01*
X5751863Y26452605D01*
X5794046Y26406062D01*
X5831465Y26355609D01*
X5863758Y26301732D01*
X5890615Y26244948D01*
X5911776Y26185805D01*
X5927039Y26124873D01*
X5936256Y26062739D01*
X5939338Y26000000D01*
X5936256Y25937261D01*
X5927039Y25875127D01*
X5911776Y25814195D01*
X5890615Y25755052D01*
X5863758Y25698268D01*
X5831465Y25644391D01*
X5794046Y25593938D01*
X5751863Y25547395D01*
X5705320Y25505211D01*
X5654867Y25467793D01*
X5600989Y25435500D01*
X5544206Y25408643D01*
X5485063Y25387482D01*
X5424131Y25372219D01*
X5361997Y25363002D01*
X5299258Y25359920D01*
X1300742Y25359920D01*
X1238003Y25363002D01*
G37*
%TO.C,C1*%
X15088748Y23090000D02*
X16511252Y23090000D01*
X15088748Y24910000D02*
X16511252Y24910000D01*
%TO.C,U1*%
X15800000Y12440000D02*
X13850000Y12440000D01*
X15800000Y22560000D02*
X17750000Y22560000D01*
X15800000Y22560000D02*
X13850000Y22560000D01*
X15800000Y12440000D02*
X19300000Y12440000D01*
%TO.C,R3*%
X30146359Y11870000D02*
X30453641Y11870000D01*
X30146359Y12630000D02*
X30453641Y12630000D01*
%TO.C,R4*%
X50146359Y11870000D02*
X50453641Y11870000D01*
X50146359Y12630000D02*
X50453641Y12630000D01*
%TO.C,D5*%
X52000000Y11515000D02*
X54285000Y11515000D01*
X54285000Y11515000D02*
X54285000Y12985000D01*
X54285000Y12985000D02*
X52000000Y12985000D01*
%TO.C,C6*%
X65890000Y23263748D02*
X65890000Y24686252D01*
X67710000Y23263748D02*
X67710000Y24686252D01*
%TO.C,F1*%
X29697936Y22290000D02*
X30902064Y22290000D01*
X29697936Y24110000D02*
X30902064Y24110000D01*
%TO.C,SW1*%
X31300000Y16500000D02*
X34300000Y16500000D01*
X37050000Y15000000D02*
X37050000Y21750000D01*
X31300000Y18500000D02*
X31300000Y16500000D01*
X37050000Y21750000D02*
X28550000Y21750000D01*
X28550000Y21750000D02*
X28550000Y13250000D01*
X28550000Y13250000D02*
X35300000Y13250000D01*
X34300000Y16500000D02*
X34300000Y18500000D01*
X34300000Y18500000D02*
X31300000Y18500000D01*
%TO.C,D2*%
X10100000Y18550000D02*
X11950000Y18550000D01*
X11950000Y18550000D02*
X11950000Y19750000D01*
X10100000Y19750000D02*
X11950000Y19750000D01*
%TO.C,kibuzzard-63351CB9*%
G36*
X3145661Y8758859D02*
G01*
X3096488Y8774277D01*
X3060095Y8820533D01*
X3043426Y8868008D01*
X3033425Y8928201D01*
X3030091Y9001111D01*
X3030604Y9012224D01*
X3084543Y9012224D01*
X3101211Y8960551D01*
X3146773Y8938881D01*
X3190667Y8960551D01*
X3207891Y9012224D01*
X3190667Y9064452D01*
X3146773Y9086677D01*
X3101211Y9064452D01*
X3084543Y9012224D01*
X3030604Y9012224D01*
X3033425Y9073404D01*
X3043426Y9133227D01*
X3060095Y9180578D01*
X3096488Y9226834D01*
X3145661Y9242252D01*
X3195529Y9226834D01*
X3231783Y9180578D01*
X3248143Y9133227D01*
X3257959Y9073404D01*
X3261231Y9001111D01*
X3257959Y8928201D01*
X3248143Y8868008D01*
X3231783Y8820533D01*
X3195529Y8774277D01*
X3146773Y8759202D01*
X3145661Y8758859D01*
G37*
G36*
X1166531Y8504557D02*
G01*
X1118204Y8511726D01*
X1070812Y8523597D01*
X1024812Y8540056D01*
X980647Y8560944D01*
X938742Y8586061D01*
X899501Y8615164D01*
X863301Y8647974D01*
X830492Y8684174D01*
X801389Y8723415D01*
X776272Y8765320D01*
X755383Y8809485D01*
X738924Y8855485D01*
X727053Y8902876D01*
X719885Y8951203D01*
X717487Y9000000D01*
X719885Y9048797D01*
X727053Y9097124D01*
X738924Y9144515D01*
X755383Y9190515D01*
X776272Y9234680D01*
X801389Y9276585D01*
X830492Y9315826D01*
X855461Y9343376D01*
X1215420Y9343376D01*
X1228199Y9281146D01*
X1246535Y9203359D01*
X1261228Y9145142D01*
X1277156Y9084578D01*
X1294319Y9021669D01*
X1312469Y8957526D01*
X1331360Y8893258D01*
X1350993Y8828867D01*
X1380163Y8737189D01*
X1407666Y8655512D01*
X1548795Y8655512D01*
X1570032Y8714717D01*
X1590776Y8775281D01*
X1611025Y8837202D01*
X1630472Y8899432D01*
X1648808Y8960921D01*
X1666032Y9021669D01*
X1689646Y9110153D01*
X1710482Y9194469D01*
X1711753Y9200025D01*
X1809939Y9200025D01*
X1854389Y9086677D01*
X1922175Y9113903D01*
X1993295Y9153352D01*
X1993295Y8768860D01*
X1848833Y8768860D01*
X1848833Y8655512D01*
X2266663Y8655512D01*
X2266663Y8743301D01*
X2491135Y8743301D01*
X2499469Y8700518D01*
X2521694Y8669403D01*
X2553365Y8649956D01*
X2591148Y8643289D01*
X2660045Y8668847D01*
X2690049Y8743301D01*
X2660045Y8815532D01*
X2591148Y8841091D01*
X2553365Y8834424D01*
X2521694Y8815532D01*
X2499469Y8784973D01*
X2491135Y8743301D01*
X2266663Y8743301D01*
X2266663Y8768860D01*
X2129979Y8768860D01*
X2129979Y9001111D01*
X2906743Y9001111D01*
X2910562Y8915823D01*
X2922022Y8842202D01*
X2941122Y8780250D01*
X2967861Y8729966D01*
X3014781Y8680577D01*
X3074047Y8650944D01*
X3145661Y8641066D01*
X3217275Y8650944D01*
X3276542Y8680577D01*
X3323461Y8729966D01*
X3350201Y8780250D01*
X3369300Y8842202D01*
X3380760Y8915823D01*
X3384580Y9001111D01*
X3380760Y9085879D01*
X3369300Y9159048D01*
X3350201Y9220618D01*
X3323461Y9270589D01*
X3276542Y9319670D01*
X3217275Y9349118D01*
X3145661Y9358934D01*
X3075159Y9349056D01*
X3016262Y9319423D01*
X2968973Y9270034D01*
X2941747Y9219889D01*
X2922300Y9158353D01*
X2910632Y9085427D01*
X2906743Y9001111D01*
X2129979Y9001111D01*
X2129979Y9343376D01*
X2036634Y9343376D01*
X1988850Y9300037D01*
X1929954Y9260033D01*
X1867724Y9225584D01*
X1809939Y9200025D01*
X1711753Y9200025D01*
X1728401Y9272812D01*
X1743264Y9343376D01*
X1599913Y9343376D01*
X1589911Y9285591D01*
X1577688Y9218916D01*
X1563797Y9146824D01*
X1548795Y9072787D01*
X1532682Y8998333D01*
X1515458Y8924991D01*
X1497678Y8856232D01*
X1479898Y8795530D01*
X1461979Y8857065D01*
X1443782Y8926102D01*
X1426002Y8999444D01*
X1409333Y9073898D01*
X1393915Y9147796D01*
X1379885Y9219472D01*
X1368217Y9285730D01*
X1359883Y9343376D01*
X1215420Y9343376D01*
X855461Y9343376D01*
X863301Y9352026D01*
X899501Y9384836D01*
X938742Y9413939D01*
X980647Y9439056D01*
X1024812Y9459944D01*
X1070812Y9476403D01*
X1118204Y9488274D01*
X1166531Y9495443D01*
X1215327Y9497840D01*
X3384673Y9497840D01*
X3433469Y9495443D01*
X3481796Y9488274D01*
X3529188Y9476403D01*
X3575188Y9459944D01*
X3619353Y9439056D01*
X3661258Y9413939D01*
X3700499Y9384836D01*
X3736699Y9352026D01*
X3769508Y9315826D01*
X3798611Y9276585D01*
X3823728Y9234680D01*
X3844617Y9190515D01*
X3861076Y9144515D01*
X3872947Y9097124D01*
X3880115Y9048797D01*
X3882513Y9000000D01*
X3880115Y8951203D01*
X3872947Y8902876D01*
X3861076Y8855485D01*
X3844617Y8809485D01*
X3823728Y8765320D01*
X3798611Y8723415D01*
X3769508Y8684174D01*
X3736699Y8647974D01*
X3700499Y8615164D01*
X3661258Y8586061D01*
X3619353Y8560944D01*
X3575188Y8540056D01*
X3529188Y8523597D01*
X3481796Y8511726D01*
X3433469Y8504557D01*
X3384673Y8502160D01*
X1215327Y8502160D01*
X1166531Y8504557D01*
G37*
%TO.C,C2*%
X11157836Y16190000D02*
X10942164Y16190000D01*
X11157836Y16910000D02*
X10942164Y16910000D01*
%TO.C,J2*%
X20965000Y16800000D02*
X20965000Y8500000D01*
X26635000Y16800000D02*
X26635000Y8500000D01*
X26635000Y21500000D02*
X26635000Y19800000D01*
X20965000Y19800000D02*
X20965000Y21500000D01*
X20965000Y21500000D02*
X26635000Y21500000D01*
%TO.C,kibuzzard-6343237F*%
G36*
X50731032Y9792225D02*
G01*
X50661994Y9802466D01*
X50594292Y9819424D01*
X50528578Y9842937D01*
X50465485Y9872778D01*
X50405621Y9908659D01*
X50349562Y9950235D01*
X50297848Y9997106D01*
X50250977Y10048819D01*
X50209401Y10104878D01*
X50173520Y10164743D01*
X50143679Y10227836D01*
X50120166Y10293550D01*
X50103208Y10361252D01*
X50102878Y10363475D01*
X50876744Y10363475D01*
X50880713Y10281719D01*
X50892619Y10207900D01*
X50914050Y10143209D01*
X50946594Y10088837D01*
X51048988Y10013431D01*
X51121020Y9993786D01*
X51208531Y9987237D01*
X51297431Y9993786D01*
X51370456Y10013431D01*
X51429194Y10045380D01*
X51446642Y10061850D01*
X51672081Y10061850D01*
X51781619Y10013431D01*
X51866947Y9993786D01*
X51976881Y9987237D01*
X52088271Y9995616D01*
X52179023Y10020751D01*
X52184042Y10023750D01*
X52488056Y10023750D01*
X52556716Y10011248D01*
X52626169Y10002319D01*
X52694828Y9996961D01*
X52761106Y9995175D01*
X52839489Y9998945D01*
X52912713Y10010256D01*
X52978594Y10030497D01*
X53034950Y10061056D01*
X53116706Y10156306D01*
X53139328Y10223180D01*
X53146869Y10304737D01*
X53137939Y10371412D01*
X53111150Y10434912D01*
X53059358Y10490475D01*
X52975419Y10533337D01*
X53066700Y10619062D01*
X53092298Y10677006D01*
X53100831Y10742887D01*
X53086544Y10834962D01*
X53055701Y10882587D01*
X54058094Y10882587D01*
X54154931Y10746062D01*
X54254944Y10820675D01*
X54351781Y10842900D01*
X54443856Y10810356D01*
X54480369Y10717487D01*
X54451000Y10633350D01*
X54376388Y10547625D01*
X54329556Y10502183D01*
X54279550Y10454756D01*
X54229544Y10404353D01*
X54182713Y10349981D01*
X54141438Y10291045D01*
X54108100Y10226950D01*
X54086073Y10157100D01*
X54078731Y10080900D01*
X54077938Y10047562D01*
X54081906Y10007875D01*
X54723256Y10007875D01*
X54723256Y10169800D01*
X54300981Y10169800D01*
X54317650Y10222188D01*
X54358131Y10278544D01*
X54408931Y10332519D01*
X54456556Y10377762D01*
X54537519Y10457138D01*
X54608956Y10542862D01*
X54659756Y10634144D01*
X54678806Y10731775D01*
X54653406Y10854806D01*
X54585144Y10942913D01*
X54486719Y10995300D01*
X54370831Y11012762D01*
X54288083Y11004825D01*
X54204938Y10981012D01*
X54126555Y10940531D01*
X54058094Y10882587D01*
X53055701Y10882587D01*
X53032569Y10918306D01*
X52923031Y10978631D01*
X52842863Y10995895D01*
X52742056Y11001650D01*
X52610294Y10994506D01*
X52488056Y10977837D01*
X52488056Y10023750D01*
X52184042Y10023750D01*
X52249138Y10062644D01*
X52316408Y10153727D01*
X52338831Y10276162D01*
X52332084Y10350180D01*
X52311844Y10410306D01*
X52242788Y10499206D01*
X52150713Y10556356D01*
X52054669Y10595250D01*
X51993550Y10619062D01*
X51937988Y10648431D01*
X51897506Y10686531D01*
X51881631Y10736537D01*
X51898917Y10799156D01*
X51950776Y10836726D01*
X52037206Y10849250D01*
X52149125Y10833375D01*
X52237231Y10795275D01*
X52294381Y10946087D01*
X52180875Y10992125D01*
X52107652Y11007603D01*
X52022919Y11012762D01*
X51925640Y11004119D01*
X51843355Y10978190D01*
X51776063Y10934975D01*
X51708792Y10842106D01*
X51686369Y10719075D01*
X51711769Y10602394D01*
X51776063Y10523812D01*
X51862581Y10471425D01*
X51954656Y10434912D01*
X52021331Y10407131D01*
X52081656Y10373794D01*
X52126106Y10331725D01*
X52143569Y10277750D01*
X52136425Y10230919D01*
X52110231Y10189644D01*
X52058638Y10161069D01*
X51976881Y10150750D01*
X51897705Y10156306D01*
X51831625Y10172975D01*
X51729231Y10220600D01*
X51672081Y10061850D01*
X51446642Y10061850D01*
X51475231Y10088837D01*
X51508966Y10143209D01*
X51530794Y10207900D01*
X51542700Y10281719D01*
X51546669Y10363475D01*
X51546669Y10990537D01*
X51351406Y10990537D01*
X51351406Y10377762D01*
X51345056Y10273781D01*
X51322831Y10205519D01*
X51279969Y10168212D01*
X51211706Y10157100D01*
X51143444Y10168212D01*
X51101375Y10204725D01*
X51079944Y10272194D01*
X51073594Y10376175D01*
X51073594Y10990537D01*
X50876744Y10990537D01*
X50876744Y10363475D01*
X50102878Y10363475D01*
X50092967Y10430290D01*
X50089542Y10500000D01*
X50092967Y10569710D01*
X50103208Y10638748D01*
X50120166Y10706450D01*
X50143679Y10772164D01*
X50173520Y10835257D01*
X50209401Y10895122D01*
X50250977Y10951181D01*
X50297848Y11002894D01*
X50349562Y11049765D01*
X50405621Y11091341D01*
X50465485Y11127222D01*
X50528578Y11157063D01*
X50594292Y11180576D01*
X50661994Y11197534D01*
X50731032Y11207775D01*
X50800742Y11211200D01*
X54799258Y11211200D01*
X54868968Y11207775D01*
X54938006Y11197534D01*
X55005708Y11180576D01*
X55071422Y11157063D01*
X55134515Y11127222D01*
X55194379Y11091341D01*
X55250438Y11049765D01*
X55302152Y11002894D01*
X55349023Y10951180D01*
X55390599Y10895122D01*
X55426480Y10835257D01*
X55456321Y10772164D01*
X55479834Y10706450D01*
X55496792Y10638748D01*
X55507033Y10569710D01*
X55510458Y10500000D01*
X55507033Y10430290D01*
X55496792Y10361252D01*
X55479834Y10293550D01*
X55456321Y10227836D01*
X55426480Y10164743D01*
X55390599Y10104878D01*
X55349023Y10048820D01*
X55302152Y9997106D01*
X55250438Y9950235D01*
X55194379Y9908659D01*
X55134515Y9872778D01*
X55071422Y9842937D01*
X55005708Y9819424D01*
X54938006Y9802466D01*
X54868968Y9792225D01*
X54799258Y9788800D01*
X50800742Y9788800D01*
X50731032Y9792225D01*
G37*
G36*
X52909538Y10407131D02*
G01*
X52954781Y10304737D01*
X52938906Y10234094D01*
X52898425Y10191231D01*
X52842069Y10170594D01*
X52776981Y10165037D01*
X52728563Y10166625D01*
X52683319Y10171387D01*
X52683319Y10438088D01*
X52788094Y10438088D01*
X52909538Y10407131D01*
G37*
G36*
X52824606Y10827819D02*
G01*
X52869056Y10811944D01*
X52899219Y10778606D01*
X52910331Y10722250D01*
X52872231Y10632556D01*
X52759519Y10600012D01*
X52683319Y10600012D01*
X52683319Y10825437D01*
X52726181Y10830200D01*
X52772219Y10831787D01*
X52824606Y10827819D01*
G37*
%TO.C,F2*%
X50902064Y24110000D02*
X49697936Y24110000D01*
X50902064Y22290000D02*
X49697936Y22290000D01*
%TO.C,kibuzzard-63432387*%
G36*
X72918269Y10407131D02*
G01*
X72963513Y10304737D01*
X72947638Y10234094D01*
X72907156Y10191231D01*
X72850800Y10170594D01*
X72785713Y10165037D01*
X72737294Y10166625D01*
X72692050Y10171387D01*
X72692050Y10438088D01*
X72796825Y10438088D01*
X72918269Y10407131D01*
G37*
G36*
X70731032Y9792225D02*
G01*
X70661994Y9802466D01*
X70594292Y9819424D01*
X70528578Y9842937D01*
X70465485Y9872778D01*
X70405621Y9908659D01*
X70349562Y9950235D01*
X70297848Y9997106D01*
X70250977Y10048819D01*
X70209401Y10104878D01*
X70173520Y10164743D01*
X70143679Y10227836D01*
X70120166Y10293550D01*
X70103208Y10361252D01*
X70102878Y10363475D01*
X70885475Y10363475D01*
X70889444Y10281719D01*
X70901350Y10207900D01*
X70922781Y10143209D01*
X70955325Y10088837D01*
X71057719Y10013431D01*
X71129752Y9993786D01*
X71217263Y9987237D01*
X71306163Y9993786D01*
X71379188Y10013431D01*
X71437925Y10045380D01*
X71455373Y10061850D01*
X71680813Y10061850D01*
X71790350Y10013431D01*
X71875678Y9993786D01*
X71985613Y9987237D01*
X72097002Y9995616D01*
X72187754Y10020751D01*
X72192773Y10023750D01*
X72496788Y10023750D01*
X72565447Y10011248D01*
X72634900Y10002319D01*
X72703559Y9996961D01*
X72769838Y9995175D01*
X72848220Y9998945D01*
X72921444Y10010256D01*
X72987325Y10030497D01*
X73007085Y10041212D01*
X74063650Y10041212D01*
X74112863Y10023750D01*
X74181919Y10006287D01*
X74259706Y9992794D01*
X74336700Y9987237D01*
X74428378Y9992992D01*
X74506563Y10010256D01*
X74571650Y10038037D01*
X74624038Y10075344D01*
X74692300Y10174562D01*
X74714525Y10299975D01*
X74704008Y10379747D01*
X74672456Y10447612D01*
X74621855Y10501984D01*
X74554188Y10541275D01*
X74643088Y10623825D01*
X74676425Y10736537D01*
X74657375Y10846075D01*
X74598638Y10934181D01*
X74497831Y10992125D01*
X74431355Y11007603D01*
X74354163Y11012762D01*
X74269827Y11005420D01*
X74194619Y10983394D01*
X74081113Y10925450D01*
X74150963Y10782575D01*
X74245419Y10827819D01*
X74355750Y10846075D01*
X74445444Y10815119D01*
X74477988Y10730187D01*
X74462906Y10669862D01*
X74424013Y10631762D01*
X74370038Y10611125D01*
X74309713Y10604775D01*
X74236688Y10604775D01*
X74236688Y10442850D01*
X74297013Y10442850D01*
X74383928Y10435111D01*
X74454175Y10411894D01*
X74500609Y10369230D01*
X74516088Y10303150D01*
X74475606Y10196787D01*
X74420242Y10164641D01*
X74335113Y10153925D01*
X74259905Y10158291D01*
X74196206Y10171387D01*
X74101750Y10204725D01*
X74063650Y10041212D01*
X73007085Y10041212D01*
X73043681Y10061056D01*
X73125438Y10156306D01*
X73148059Y10223180D01*
X73155600Y10304737D01*
X73146670Y10371412D01*
X73119881Y10434912D01*
X73068089Y10490475D01*
X72984150Y10533337D01*
X73075431Y10619062D01*
X73101030Y10677006D01*
X73109563Y10742887D01*
X73095275Y10834962D01*
X73041300Y10918306D01*
X72931763Y10978631D01*
X72851594Y10995895D01*
X72750788Y11001650D01*
X72619025Y10994506D01*
X72496788Y10977837D01*
X72496788Y10023750D01*
X72192773Y10023750D01*
X72257869Y10062644D01*
X72325139Y10153727D01*
X72347563Y10276162D01*
X72340816Y10350180D01*
X72320575Y10410306D01*
X72251519Y10499206D01*
X72159444Y10556356D01*
X72063400Y10595250D01*
X72002281Y10619062D01*
X71946719Y10648431D01*
X71906238Y10686531D01*
X71890363Y10736537D01*
X71907649Y10799156D01*
X71959507Y10836726D01*
X72045938Y10849250D01*
X72157856Y10833375D01*
X72245963Y10795275D01*
X72303113Y10946087D01*
X72189606Y10992125D01*
X72116383Y11007603D01*
X72031650Y11012762D01*
X71934372Y11004119D01*
X71852086Y10978190D01*
X71784794Y10934975D01*
X71717523Y10842106D01*
X71695100Y10719075D01*
X71720500Y10602394D01*
X71784794Y10523812D01*
X71871313Y10471425D01*
X71963388Y10434912D01*
X72030063Y10407131D01*
X72090388Y10373794D01*
X72134838Y10331725D01*
X72152300Y10277750D01*
X72145156Y10230919D01*
X72118963Y10189644D01*
X72067369Y10161069D01*
X71985613Y10150750D01*
X71906436Y10156306D01*
X71840356Y10172975D01*
X71737963Y10220600D01*
X71680813Y10061850D01*
X71455373Y10061850D01*
X71483963Y10088837D01*
X71517697Y10143209D01*
X71539525Y10207900D01*
X71551431Y10281719D01*
X71555400Y10363475D01*
X71555400Y10990537D01*
X71360138Y10990537D01*
X71360138Y10377762D01*
X71353788Y10273781D01*
X71331563Y10205519D01*
X71288700Y10168212D01*
X71220438Y10157100D01*
X71152175Y10168212D01*
X71110106Y10204725D01*
X71088675Y10272194D01*
X71082325Y10376175D01*
X71082325Y10990537D01*
X70885475Y10990537D01*
X70885475Y10363475D01*
X70102878Y10363475D01*
X70092967Y10430290D01*
X70089542Y10500000D01*
X70092967Y10569710D01*
X70103208Y10638748D01*
X70120166Y10706450D01*
X70143679Y10772164D01*
X70173520Y10835257D01*
X70209401Y10895122D01*
X70250977Y10951181D01*
X70297848Y11002894D01*
X70349562Y11049765D01*
X70405621Y11091341D01*
X70465485Y11127222D01*
X70528578Y11157063D01*
X70594292Y11180576D01*
X70661994Y11197534D01*
X70731032Y11207775D01*
X70800742Y11211200D01*
X74799258Y11211200D01*
X74868968Y11207775D01*
X74938006Y11197534D01*
X75005708Y11180576D01*
X75071422Y11157063D01*
X75134515Y11127222D01*
X75194379Y11091341D01*
X75250438Y11049765D01*
X75302152Y11002894D01*
X75349023Y10951180D01*
X75390599Y10895122D01*
X75426480Y10835257D01*
X75456321Y10772164D01*
X75479834Y10706450D01*
X75496792Y10638748D01*
X75507033Y10569710D01*
X75510458Y10500000D01*
X75507033Y10430290D01*
X75496792Y10361252D01*
X75479834Y10293550D01*
X75456321Y10227836D01*
X75426480Y10164743D01*
X75390599Y10104878D01*
X75349023Y10048820D01*
X75302152Y9997106D01*
X75250438Y9950235D01*
X75194379Y9908659D01*
X75134515Y9872778D01*
X75071422Y9842937D01*
X75005708Y9819424D01*
X74938006Y9802466D01*
X74868968Y9792225D01*
X74799258Y9788800D01*
X70800742Y9788800D01*
X70731032Y9792225D01*
G37*
G36*
X72833338Y10827819D02*
G01*
X72877788Y10811944D01*
X72907950Y10778606D01*
X72919063Y10722250D01*
X72880963Y10632556D01*
X72768250Y10600012D01*
X72692050Y10600012D01*
X72692050Y10825437D01*
X72734913Y10830200D01*
X72780950Y10831787D01*
X72833338Y10827819D01*
G37*
%TO.C,R1*%
X10896359Y14130000D02*
X11203641Y14130000D01*
X10896359Y13370000D02*
X11203641Y13370000D01*
%TO.C,D13*%
X65400000Y22500000D02*
X65400000Y24350000D01*
X65400000Y24350000D02*
X64200000Y24350000D01*
X64200000Y22500000D02*
X64200000Y24350000D01*
%TO.C,R2*%
X10896359Y13180000D02*
X11203641Y13180000D01*
X10896359Y12420000D02*
X11203641Y12420000D01*
%TO.C,C3*%
X11157836Y15760000D02*
X10942164Y15760000D01*
X11157836Y15040000D02*
X10942164Y15040000D01*
%TO.C,J3*%
X40965000Y21500000D02*
X46635000Y21500000D01*
X40965000Y16800000D02*
X40965000Y8500000D01*
X46635000Y16800000D02*
X46635000Y8500000D01*
X46635000Y21500000D02*
X46635000Y19800000D01*
X40965000Y19800000D02*
X40965000Y21500000D01*
%TO.C,D12*%
X44000000Y22500000D02*
X44000000Y24350000D01*
X44000000Y24350000D02*
X42800000Y24350000D01*
X42800000Y22500000D02*
X42800000Y24350000D01*
%TO.C,D1*%
X11950000Y21900000D02*
X11950000Y23100000D01*
X10100000Y23100000D02*
X11950000Y23100000D01*
X10100000Y21900000D02*
X11950000Y21900000D01*
%TO.C,D14*%
X62600000Y24350000D02*
X61400000Y24350000D01*
X61400000Y22500000D02*
X61400000Y24350000D01*
X62600000Y22500000D02*
X62600000Y24350000D01*
%TO.C,D4*%
X34285000Y11515000D02*
X34285000Y12985000D01*
X34285000Y12985000D02*
X32000000Y12985000D01*
X32000000Y11515000D02*
X34285000Y11515000D01*
%TO.C,J1*%
X5700000Y12800000D02*
X4100000Y12800000D01*
X5700000Y22200000D02*
X4100000Y22200000D01*
%TO.C,D15*%
X64000000Y24350000D02*
X62800000Y24350000D01*
X64000000Y22500000D02*
X64000000Y24350000D01*
X62800000Y22500000D02*
X62800000Y24350000D01*
%TO.C,SW3*%
X74300000Y18500000D02*
X71300000Y18500000D01*
X68550000Y13250000D02*
X75300000Y13250000D01*
X71300000Y18500000D02*
X71300000Y16500000D01*
X77050000Y15000000D02*
X77050000Y21750000D01*
X68550000Y21750000D02*
X68550000Y13250000D01*
X71300000Y16500000D02*
X74300000Y16500000D01*
X77050000Y21750000D02*
X68550000Y21750000D01*
X74300000Y16500000D02*
X74300000Y18500000D01*
%TO.C,D7*%
X25400000Y24350000D02*
X24200000Y24350000D01*
X25400000Y22500000D02*
X25400000Y24350000D01*
X24200000Y22500000D02*
X24200000Y24350000D01*
%TO.C,C5*%
X47710000Y23263748D02*
X47710000Y24686252D01*
X45890000Y23263748D02*
X45890000Y24686252D01*
%TO.C,J4*%
X66635000Y16800000D02*
X66635000Y8500000D01*
X66635000Y21500000D02*
X66635000Y19800000D01*
X60965000Y16800000D02*
X60965000Y8500000D01*
X60965000Y19800000D02*
X60965000Y21500000D01*
X60965000Y21500000D02*
X66635000Y21500000D01*
%TO.C,C4*%
X27710000Y23263748D02*
X27710000Y24686252D01*
X25890000Y23263748D02*
X25890000Y24686252D01*
%TO.C,Y1*%
X13965000Y9015000D02*
X13965000Y11800000D01*
X14165000Y9015000D02*
X13965000Y9015000D01*
X17635000Y11800000D02*
X17635000Y9200000D01*
%TO.C,D9*%
X24000000Y24350000D02*
X22800000Y24350000D01*
X24000000Y22500000D02*
X24000000Y24350000D01*
X22800000Y22500000D02*
X22800000Y24350000D01*
%TO.C,D10*%
X45400000Y24350000D02*
X44200000Y24350000D01*
X45400000Y22500000D02*
X45400000Y24350000D01*
X44200000Y22500000D02*
X44200000Y24350000D01*
%TO.C,D8*%
X22600000Y24350000D02*
X21400000Y24350000D01*
X21400000Y22500000D02*
X21400000Y24350000D01*
X22600000Y22500000D02*
X22600000Y24350000D01*
%TD*%
M02*
